<?xml version="1.0" standalone="no"?>
<!DOCTYPE svg PUBLIC "-//W3C//DTD SVG 20010904//EN"
 "http://www.w3.org/TR/2001/REC-SVG-20010904/DTD/svg10.dtd">
<svg version="1.0" xmlns="http://www.w3.org/2000/svg"
 width="500.000000pt" height="500.000000pt" viewBox="0 0 500.000000 500.000000"
 preserveAspectRatio="xMidYMid meet">
<metadata>
Created by potrace 1.14, written by Peter Selinger 2001-2017
</metadata>
<g transform="translate(0.000000,500.000000) scale(0.100000,-0.100000)"
fill="#000000" stroke="none">
<path d="M2508 3645 c-1 -1 -27 -5 -56 -9 -90 -11 -222 -80 -315 -166 -50 -45
-156 -177 -168 -207 -10 -27 -24 -29 -46 -8 -16 17 -8 35 30 63 9 7 17 19 17
26 0 14 -58 76 -71 76 -4 0 -37 -29 -73 -65 l-64 -66 -74 63 c-137 117 -166
148 -172 184 -16 84 -136 108 -179 35 -38 -64 -11 -133 60 -153 21 -6 51 -25
68 -42 37 -41 104 -116 129 -147 10 -13 26 -32 34 -41 14 -16 12 -21 -19 -52
-19 -18 -49 -49 -68 -69 l-33 -35 33 -36 c18 -20 35 -36 39 -36 4 0 23 13 41
30 19 16 37 30 40 30 3 0 47 -42 97 -94 l91 -94 -15 -56 c-24 -93 -82 -234
-141 -346 -30 -58 -59 -107 -62 -110 -15 -11 -41 -92 -41 -128 0 -20 7 -50 15
-66 8 -15 15 -32 15 -36 0 -4 23 -48 50 -99 28 -51 50 -96 50 -100 0 -4 -10
-19 -21 -32 -36 -41 -148 -232 -150 -256 -1 -5 -8 -24 -16 -43 -8 -19 -16 -43
-18 -52 -2 -9 -8 -25 -13 -35 -5 -10 -7 -26 -3 -35 5 -15 14 -14 88 12 105 36
251 112 315 163 50 39 51 39 82 23 61 -33 91 -51 94 -58 2 -5 8 -8 12 -8 5 0
33 -14 62 -31 119 -71 279 -159 301 -166 9 -3 17 -9 17 -13 0 -29 131 35 466
231 101 59 119 66 126 51 20 -51 408 -238 436 -210 25 25 -109 316 -198 428
l-29 37 22 34 c46 74 109 216 112 253 4 49 -8 82 -63 176 -74 125 -139 273
-170 386 -10 38 -18 74 -18 81 1 10 130 150 169 182 14 11 21 9 48 -18 17 -17
34 -31 39 -31 5 0 25 16 45 35 l37 35 -66 68 c-36 38 -66 71 -66 75 0 17 211
247 221 241 11 -6 47 12 75 38 17 15 21 28 18 66 -4 53 -32 88 -78 96 -50 9
-116 -39 -116 -84 0 -21 -16 -42 -72 -91 -40 -35 -80 -71 -88 -79 -9 -9 -32
-28 -51 -43 l-35 -26 -64 64 c-36 36 -69 65 -75 65 -5 0 -25 -17 -42 -37 l-33
-37 36 -37 c31 -32 33 -37 19 -49 -8 -7 -17 -11 -18 -9 -2 2 -22 36 -46 76
-77 130 -229 262 -326 283 -5 1 -18 6 -28 11 -9 5 -41 12 -70 15 -28 3 -57 7
-64 9 -6 2 -13 2 -15 0z m-1063 -83 c-3 -3 -11 0 -18 7 -9 10 -8 11 6 5 10 -3
15 -9 12 -12z m-53 -8 c-12 -8 -20 -19 -17 -24 3 -5 1 -11 -5 -15 -6 -4 -7
-11 -4 -17 4 -7 2 -8 -4 -4 -27 16 2 76 37 76 11 0 9 -4 -7 -16z m2240 -1 c10
-12 12 -26 7 -43 -6 -21 -7 -22 -8 -5 -1 11 -8 31 -17 43 -18 26 -4 30 18 5z
m-2203 -50 c-15 -17 -32 -2 -23 21 5 13 9 14 20 5 11 -9 12 -15 3 -26z m2171
11 c0 -9 -7 -14 -17 -12 -25 5 -28 28 -4 28 12 0 21 -6 21 -16z m-2000 -453
c0 -6 -4 -13 -10 -16 -5 -3 -10 -15 -10 -27 0 -17 -2 -18 -15 -8 -19 16 -19
25 1 44 17 18 34 21 34 7z m213 -104 c15 -16 20 -37 9 -37 -14 0 -43 36 -35
43 9 10 13 9 26 -6z m92 -1271 c17 -12 12 -17 -56 -61 -100 -65 -187 -110
-195 -102 -4 4 -5 8 -3 10 2 2 41 31 86 65 45 34 85 62 88 62 3 0 15 9 27 20
26 24 29 24 53 6z m1262 -22 c32 -22 53 -44 53 -55 0 -27 -13 -24 -70 16 -28
19 -50 32 -50 29 0 -4 -7 -1 -15 6 -13 11 -13 14 2 26 24 18 21 19 80 -22z"/>
</g>
</svg>
